<svg xmlns="http://www.w3.org/2000/svg" version="1.1" xmlns:xlink="http://www.w3.org/1999/xlink" xmlns:svgjs="http://svgjs.dev/svgjs" viewBox="0 0 14.302550251565258 3.188325981814864"><g transform="matrix(1,0,0,1,2.4591095233958327,0.5801817409074321)"><rect width="14.302550251565258" height="14.302550251565258" x="-2.459109523395833" y="-6.137293875782629" fill="#002626"></rect><g><path d=" M 0.18 0.018000000000000016 L 0.18 1.068 L 0.3165 1.068 L 0.3165 0.546 L 0.7815 0.546 L 0.7815 0.4770000000000001 L 0.3165 0.4770000000000001 L 0.3165 0.10050000000000003 L 0.858 0.10050000000000003 L 0.858 0.018000000000000016 L 0.18 0.018000000000000016 M 1.037984619140625 0.018000000000000016 L 1.037984619140625 0.663 Q 1.037984619140625 0.7245 1.049984619140625 0.7987500000000001 Q 1.061984619140625 0.873 1.106984619140625 0.9367500000000001 Q 1.151984619140625 1.0005000000000002 1.240484619140625 1.04325 Q 1.3289846191406252 1.086 1.4819846191406252 1.086 Q 1.577984619140625 1.086 1.652234619140625 1.056 Q 1.7264846191406251 1.026 1.776734619140625 0.9735 Q 1.826984619140625 0.921 1.852484619140625 0.8512500000000001 Q 1.877984619140625 0.7815000000000001 1.877984619140625 0.7020000000000001 L 1.877984619140625 0.018000000000000016 L 1.811984619140625 0.018000000000000016 L 1.811984619140625 0.6525000000000001 Q 1.811984619140625 0.6855 1.8104846191406252 0.7192500000000001 Q 1.8089846191406251 0.7530000000000001 1.801484619140625 0.7867500000000001 Q 1.793984619140625 0.8205 1.778234619140625 0.8535 Q 1.7624846191406252 0.8865000000000001 1.732484619140625 0.9195000000000001 Q 1.678484619140625 0.9780000000000001 1.6109846191406252 0.9990000000000001 Q 1.543484619140625 1.02 1.4699846191406252 1.02 Q 1.406984619140625 1.02 1.358234619140625 1.0005000000000002 Q 1.309484619140625 0.9810000000000001 1.265984619140625 0.9420000000000001 Q 1.231484619140625 0.912 1.213484619140625 0.8820000000000001 Q 1.195484619140625 0.8520000000000001 1.186484619140625 0.8227500000000001 Q 1.177484619140625 0.7935000000000001 1.1759846191406251 0.7635000000000001 Q 1.174484619140625 0.7335 1.174484619140625 0.7035 L 1.174484619140625 0.018000000000000016 L 1.037984619140625 0.018000000000000016 M 2.1929406738281254 1.068 L 2.1929406738281254 0.018000000000000016 L 2.3294406738281253 0.018000000000000016 L 2.3294406738281253 0.9855 L 2.8709406738281253 0.9855 L 2.8709406738281253 1.068 L 2.1929406738281254 1.068 M 3.1109252929687505 1.068 L 3.1109252929687505 0.018000000000000016 L 3.2474252929687504 0.018000000000000016 L 3.2474252929687504 0.9855 L 3.7889252929687505 0.9855 L 3.7889252929687505 1.068 L 3.1109252929687505 1.068 M 4.315409912109375 0.018000000000000016 L 4.315409912109375 0.7755000000000001 Q 4.315409912109375 0.8115000000000001 4.313159912109375 0.8542500000000001 Q 4.310909912109375 0.897 4.295909912109376 0.9337500000000001 Q 4.280909912109376 0.9705 4.250159912109376 0.9952500000000001 Q 4.219409912109375 1.02 4.162409912109376 1.02 Q 4.112909912109376 1.02 4.080659912109375 1.002 Q 4.048409912109376 0.9840000000000001 4.029659912109375 0.9570000000000001 Q 4.010909912109375 0.93 4.002659912109375 0.8992500000000001 Q 3.9944099121093757 0.8685 3.9944099121093757 0.8445 L 3.8639099121093756 0.8445 Q 3.8669099121093753 0.9600000000000001 3.9389099121093754 1.0230000000000001 Q 4.010909912109375 1.086 4.1549099121093755 1.086 Q 4.258409912109376 1.086 4.3184099121093755 1.05525 Q 4.378409912109375 1.0245 4.407659912109375 0.9772500000000001 Q 4.436909912109376 0.93 4.444409912109376 0.8745 Q 4.451909912109375 0.8190000000000001 4.451909912109375 0.7710000000000001 L 4.451909912109375 0.018000000000000016 L 4.315409912109375 0.018000000000000016 M 4.721868896484375 0.543 Q 4.721868896484375 0.627 4.754118896484375 0.7222500000000001 Q 4.786368896484375 0.8175000000000001 4.855368896484375 0.8985000000000001 Q 4.924368896484375 0.9795 5.0308688964843755 1.03275 Q 5.137368896484375 1.086 5.285868896484375 1.086 Q 5.386368896484376 1.086 5.468118896484375 1.06125 Q 5.549868896484375 1.0365 5.6151188964843755 0.9945 Q 5.680368896484375 0.9525 5.728368896484375 0.89775 Q 5.776368896484375 0.8430000000000001 5.807118896484376 0.7822500000000001 Q 5.837868896484375 0.7215 5.853618896484376 0.66 Q 5.869368896484375 0.5985 5.869368896484375 0.543 Q 5.869368896484375 0.4590000000000001 5.834868896484375 0.36375 Q 5.800368896484375 0.26850000000000007 5.728368896484375 0.1875 Q 5.656368896484375 0.10650000000000004 5.5461188964843755 0.05325000000000002 Q 5.435868896484375 0 5.285868896484375 0 Q 5.137368896484375 0 5.0308688964843755 0.05249999999999999 Q 4.924368896484375 0.1050000000000001 4.855368896484375 0.18525000000000003 Q 4.786368896484375 0.26550000000000007 4.754118896484375 0.36150000000000004 Q 4.721868896484375 0.4575 4.721868896484375 0.543 M 4.868868896484376 0.543 Q 4.868868896484376 0.43800000000000006 4.901118896484375 0.35025000000000006 Q 4.933368896484375 0.26250000000000007 4.989618896484375 0.1995 Q 5.045868896484375 0.13650000000000007 5.122368896484375 0.10125000000000006 Q 5.198868896484376 0.06600000000000006 5.2888688964843755 0.06600000000000006 Q 5.377368896484375 0.06600000000000006 5.456118896484375 0.10125000000000006 Q 5.534868896484375 0.13650000000000007 5.5941188964843755 0.1995 Q 5.653368896484375 0.26250000000000007 5.687868896484375 0.35025000000000006 Q 5.722368896484375 0.43800000000000006 5.722368896484375 0.543 Q 5.722368896484375 0.6480000000000001 5.687868896484375 0.7357500000000001 Q 5.653368896484375 0.8235000000000001 5.5941188964843755 0.8865000000000001 Q 5.534868896484375 0.9495 5.456118896484375 0.98475 Q 5.377368896484375 1.02 5.2888688964843755 1.02 Q 5.198868896484376 1.02 5.122368896484375 0.98475 Q 5.045868896484375 0.9495 4.989618896484375 0.8865000000000001 Q 4.933368896484375 0.8235000000000001 4.901118896484375 0.7357500000000001 Q 4.868868896484376 0.6480000000000001 4.868868896484376 0.543 M 6.079354248046875 0.018000000000000016 L 6.079354248046875 0.663 Q 6.079354248046875 0.7245 6.0913542480468745 0.7987500000000001 Q 6.103354248046875 0.873 6.148354248046875 0.9367500000000001 Q 6.193354248046875 1.0005000000000002 6.281854248046875 1.04325 Q 6.3703542480468744 1.086 6.523354248046875 1.086 Q 6.619354248046875 1.086 6.693604248046875 1.056 Q 6.767854248046875 1.026 6.8181042480468745 0.9735 Q 6.868354248046875 0.921 6.893854248046875 0.8512500000000001 Q 6.919354248046875 0.7815000000000001 6.919354248046875 0.7020000000000001 L 6.919354248046875 0.018000000000000016 L 6.853354248046875 0.018000000000000016 L 6.853354248046875 0.6525000000000001 Q 6.853354248046875 0.6855 6.851854248046875 0.7192500000000001 Q 6.850354248046875 0.7530000000000001 6.842854248046875 0.7867500000000001 Q 6.835354248046875 0.8205 6.819604248046875 0.8535 Q 6.803854248046875 0.8865000000000001 6.773854248046875 0.9195000000000001 Q 6.719854248046875 0.9780000000000001 6.6523542480468745 0.9990000000000001 Q 6.584854248046875 1.02 6.5113542480468745 1.02 Q 6.448354248046875 1.02 6.399604248046875 1.0005000000000002 Q 6.350854248046875 0.9810000000000001 6.307354248046875 0.9420000000000001 Q 6.272854248046875 0.912 6.2548542480468745 0.8820000000000001 Q 6.236854248046875 0.8520000000000001 6.227854248046875 0.8227500000000001 Q 6.218854248046875 0.7935000000000001 6.217354248046875 0.7635000000000001 Q 6.215854248046875 0.7335 6.215854248046875 0.7035 L 6.215854248046875 0.018000000000000016 L 6.079354248046875 0.018000000000000016 M 7.234310302734375 0.018000000000000016 L 7.234310302734375 1.068 L 7.370810302734375 1.068 L 7.370810302734375 0.6045 L 7.436810302734376 0.6045 Q 7.4788103027343755 0.6045 7.506560302734376 0.6120000000000001 Q 7.534310302734376 0.6195 7.556810302734376 0.6375000000000001 Q 7.579310302734376 0.6555 7.598810302734376 0.684 Q 7.6183103027343755 0.7125000000000001 7.645310302734376 0.7545000000000001 L 7.763810302734376 0.93 Q 7.786310302734376 0.9645 7.808060302734376 0.9930000000000001 Q 7.8298103027343755 1.0215 7.855310302734376 1.04175 Q 7.880810302734376 1.062 7.913060302734375 1.074 Q 7.945310302734375 1.086 7.990310302734375 1.086 Q 8.023310302734375 1.086 8.044310302734376 1.083 Q 8.065310302734375 1.08 8.086310302734375 1.068 L 8.086310302734375 1.0125 Q 8.078810302734375 1.014 8.071310302734375 1.01475 Q 8.063810302734375 1.0155 8.056310302734376 1.0155 Q 8.024810302734375 1.0155 8.000810302734376 1.0065 Q 7.976810302734376 0.9975 7.955810302734376 0.9802500000000001 Q 7.934810302734375 0.9630000000000001 7.915310302734375 0.93825 Q 7.895810302734375 0.9135000000000001 7.874810302734375 0.8820000000000001 Q 7.811810302734376 0.7905 7.777310302734375 0.7357500000000001 Q 7.742810302734376 0.681 7.722560302734376 0.651 Q 7.702310302734375 0.621 7.6895603027343755 0.6075 Q 7.676810302734376 0.5940000000000001 7.658810302734375 0.5850000000000001 L 7.643810302734376 0.5775000000000001 L 7.643810302734376 0.5715000000000001 Q 7.715810302734376 0.5670000000000001 7.767560302734376 0.54 Q 7.819310302734375 0.513 7.8523103027343755 0.47250000000000003 Q 7.885310302734376 0.43200000000000005 7.9003103027343755 0.38475000000000004 Q 7.915310302734375 0.3375 7.915310302734375 0.2925000000000001 Q 7.915310302734375 0.252 7.8995603027343755 0.20400000000000007 Q 7.883810302734376 0.15600000000000003 7.845560302734375 0.11475000000000002 Q 7.8073103027343755 0.07350000000000001 7.741310302734376 0.04574999999999996 Q 7.675310302734376 0.018000000000000016 7.574810302734376 0.018000000000000016 L 7.234310302734375 0.018000000000000016 M 7.370810302734375 0.08400000000000007 L 7.522310302734375 0.08400000000000007 Q 7.579310302734376 0.08400000000000007 7.625060302734376 0.10050000000000003 Q 7.670810302734376 0.11699999999999999 7.703810302734375 0.14625 Q 7.7368103027343755 0.1755 7.754060302734375 0.21600000000000008 Q 7.771310302734375 0.25650000000000006 7.771310302734375 0.3045 Q 7.771310302734375 0.3450000000000001 7.755560302734375 0.3862500000000001 Q 7.739810302734376 0.4275000000000001 7.708310302734375 0.46125000000000005 Q 7.676810302734376 0.495 7.631060302734375 0.516 Q 7.585310302734375 0.537 7.5253103027343755 0.537 L 7.370810302734375 0.537 L 7.370810302734375 0.08400000000000007 M 9.172336669921876 0.018000000000000016 L 9.172336669921876 0.8205 L 9.166336669921876 0.8205 L 8.333836669921876 0 L 8.326336669921876 0 L 8.326336669921876 1.068 L 8.395336669921877 1.068 L 8.395336669921877 0.26550000000000007 L 8.401336669921877 0.26550000000000007 L 9.233836669921876 1.086 L 9.241336669921877 1.086 L 9.241336669921877 0.018000000000000016 L 9.172336669921876 0.018000000000000016 M 9.616300048828126 0.018000000000000016 L 9.616300048828126 1.068 L 10.294300048828127 1.068 L 10.294300048828127 0.9855 L 9.752800048828126 0.9855 L 9.752800048828126 0.546 L 10.217800048828126 0.546 L 10.217800048828126 0.4770000000000001 L 9.752800048828126 0.4770000000000001 L 9.752800048828126 0.10050000000000003 L 10.294300048828127 0.10050000000000003 L 10.294300048828127 0.018000000000000016 L 9.616300048828126 0.018000000000000016 M 10.399284667968752 0.018000000000000016 L 10.762284667968752 0.6705000000000001 L 10.762284667968752 1.068 L 10.898784667968751 1.068 L 10.898784667968751 0.657 L 11.267784667968751 0.018000000000000016 L 11.186784667968752 0.018000000000000016 L 10.865784667968752 0.5715000000000001 L 10.859784667968752 0.5715000000000001 L 10.553784667968753 0.018000000000000016 L 10.399284667968752 0.018000000000000016" fill="#ffffff" fill-rule="nonzero"></path></g><g><path d=" M 0.3645 1.5352124999999996 Q 0.42675 1.5667124999999997 0.45975 1.6259624999999995 Q 0.49275 1.6852124999999996 0.49275 1.7669624999999995 Q 0.49275 1.8479624999999997 0.45975 1.9068374999999997 Q 0.42675 1.9657124999999998 0.3645 1.9968374999999996 Q 0.30225 2.0279624999999997 0.21525 2.0279624999999997 L 0.06 2.0279624999999997 L 0.06 1.5037124999999998 L 0.21525 1.5037124999999998 Q 0.30225 1.5037124999999998 0.3645 1.5352124999999996 M 0.382125 1.9270874999999996 Q 0.4395 1.8697124999999997 0.4395 1.7669624999999995 Q 0.4395 1.6634624999999996 0.382125 1.6053374999999996 Q 0.32475 1.5472124999999997 0.21525 1.5472124999999997 L 0.1125 1.5472124999999997 L 0.1125 1.9844624999999996 L 0.21525 1.9844624999999996 Q 0.32475 1.9844624999999996 0.382125 1.9270874999999996 M 0.7004952392578125 1.9990874999999997 Q 0.6412452392578125 1.9649624999999997 0.6071202392578126 1.9038374999999996 Q 0.5729952392578126 1.8427124999999998 0.5729952392578126 1.7654624999999997 Q 0.5729952392578126 1.6882124999999997 0.6071202392578126 1.6270874999999996 Q 0.6412452392578125 1.5659624999999997 0.7004952392578125 1.5318374999999997 Q 0.7597452392578126 1.4977124999999996 0.8324952392578125 1.4977124999999996 Q 0.9059952392578126 1.4977124999999996 0.9652452392578126 1.5318374999999997 Q 1.0244952392578126 1.5659624999999997 1.0582452392578126 1.6270874999999996 Q 1.0919952392578125 1.6882124999999997 1.0919952392578125 1.7654624999999997 Q 1.0919952392578125 1.8427124999999998 1.0582452392578126 1.9038374999999996 Q 1.0244952392578126 1.9649624999999997 0.9652452392578126 1.9990874999999997 Q 0.9059952392578126 2.0332125 0.8324952392578125 2.0332125 Q 0.7597452392578126 2.0332125 0.7004952392578125 1.9990874999999997 M 0.9374952392578126 1.9604624999999998 Q 0.9839952392578126 1.9334624999999996 1.0109952392578125 1.8828374999999997 Q 1.0379952392578127 1.8322124999999996 1.0379952392578127 1.7654624999999997 Q 1.0379952392578127 1.6987124999999996 1.0109952392578125 1.6484624999999997 Q 0.9839952392578126 1.5982124999999996 0.9374952392578126 1.5712124999999997 Q 0.8909952392578125 1.5442124999999995 0.8324952392578125 1.5442124999999995 Q 0.7739952392578126 1.5442124999999995 0.7274952392578126 1.5712124999999997 Q 0.6809952392578126 1.5982124999999996 0.6539952392578126 1.6484624999999997 Q 0.6269952392578125 1.6987124999999996 0.6269952392578125 1.7654624999999997 Q 0.6269952392578125 1.8322124999999996 0.6539952392578126 1.8828374999999997 Q 0.6809952392578126 1.9334624999999996 0.7274952392578126 1.9604624999999998 Q 0.7739952392578126 1.9874624999999997 0.8324952392578125 1.9874624999999997 Q 0.8909952392578125 1.9874624999999997 0.9374952392578126 1.9604624999999998 M 1.590763916015625 2.0279624999999997 L 1.538263916015625 2.0279624999999997 L 1.2480139160156252 1.5869624999999996 L 1.2480139160156252 2.0279624999999997 L 1.1955139160156252 2.0279624999999997 L 1.1955139160156252 1.5037124999999998 L 1.2480139160156252 1.5037124999999998 L 1.538263916015625 1.9439624999999996 L 1.538263916015625 1.5037124999999998 L 1.590763916015625 1.5037124999999998 L 1.590763916015625 2.0279624999999997 M 1.7399945068359377 1.4317124999999997 L 1.7309945068359376 1.5764624999999997 L 1.6942445068359377 1.5764624999999997 L 1.6852445068359376 1.4317124999999997 L 1.7399945068359377 1.4317124999999997 M 2.141973999023438 1.5037124999999998 L 2.141973999023438 1.5472124999999997 L 1.9964739990234377 1.5472124999999997 L 1.9964739990234377 2.0279624999999997 L 1.9439739990234377 2.0279624999999997 L 1.9439739990234377 1.5472124999999997 L 1.7977239990234377 1.5472124999999997 L 1.7977239990234377 1.5037124999999998 L 2.141973999023438 1.5037124999999998 M 2.513603759765625 2.0152124999999996 Q 2.4742287597656247 1.9972124999999996 2.4517287597656248 1.9649624999999997 Q 2.429228759765625 1.9327124999999996 2.4277287597656247 1.8929624999999997 L 2.483228759765625 1.8929624999999997 Q 2.4869787597656248 1.9312124999999996 2.516978759765625 1.9600874999999998 Q 2.546978759765625 1.9889624999999997 2.604728759765625 1.9889624999999997 Q 2.657978759765625 1.9889624999999997 2.689103759765625 1.9615874999999996 Q 2.720228759765625 1.9342124999999997 2.720228759765625 1.8922124999999996 Q 2.720228759765625 1.8584624999999997 2.702978759765625 1.8378374999999996 Q 2.6857287597656248 1.8172124999999997 2.660228759765625 1.8070874999999997 Q 2.634728759765625 1.7969624999999996 2.589728759765625 1.7849624999999998 Q 2.537228759765625 1.7707124999999997 2.506478759765625 1.7572124999999996 Q 2.475728759765625 1.7437124999999996 2.453978759765625 1.7152124999999996 Q 2.432228759765625 1.6867124999999996 2.432228759765625 1.6379624999999995 Q 2.432228759765625 1.5974624999999998 2.453228759765625 1.5655874999999997 Q 2.4742287597656247 1.5337124999999996 2.512478759765625 1.5157124999999998 Q 2.550728759765625 1.4977124999999996 2.600228759765625 1.4977124999999996 Q 2.672978759765625 1.4977124999999996 2.717603759765625 1.5333374999999996 Q 2.762228759765625 1.5689624999999996 2.768978759765625 1.6252124999999997 L 2.711978759765625 1.6252124999999997 Q 2.706728759765625 1.5929624999999996 2.676728759765625 1.5678374999999996 Q 2.646728759765625 1.5427124999999997 2.595728759765625 1.5427124999999997 Q 2.548478759765625 1.5427124999999997 2.516978759765625 1.5678374999999996 Q 2.485478759765625 1.5929624999999996 2.485478759765625 1.6364624999999997 Q 2.485478759765625 1.6694624999999996 2.502728759765625 1.6897124999999997 Q 2.519978759765625 1.7099624999999996 2.545853759765625 1.7204624999999996 Q 2.571728759765625 1.7309624999999997 2.6159787597656248 1.7429624999999995 Q 2.666978759765625 1.7572124999999996 2.698478759765625 1.7710874999999997 Q 2.729978759765625 1.7849624999999998 2.751728759765625 1.8134624999999998 Q 2.773478759765625 1.8419624999999997 2.773478759765625 1.8899624999999998 Q 2.773478759765625 1.9267124999999996 2.753978759765625 1.9597124999999997 Q 2.734478759765625 1.9927124999999997 2.696228759765625 2.0129624999999995 Q 2.657978759765625 2.0332125 2.604728759765625 2.0332125 Q 2.552978759765625 2.0332125 2.513603759765625 2.0152124999999996 M 3.188994873046875 1.5037124999999998 L 3.188994873046875 1.5472124999999997 L 3.0434948730468747 1.5472124999999997 L 3.0434948730468747 2.0279624999999997 L 2.990994873046875 2.0279624999999997 L 2.990994873046875 1.5472124999999997 L 2.8447448730468747 1.5472124999999997 L 2.8447448730468747 1.5037124999999998 L 3.188994873046875 1.5037124999999998 M 3.3832595214843746 1.9990874999999997 Q 3.3240095214843746 1.9649624999999997 3.2898845214843746 1.9038374999999996 Q 3.2557595214843746 1.8427124999999998 3.2557595214843746 1.7654624999999997 Q 3.2557595214843746 1.6882124999999997 3.2898845214843746 1.6270874999999996 Q 3.3240095214843746 1.5659624999999997 3.3832595214843746 1.5318374999999997 Q 3.4425095214843746 1.4977124999999996 3.5152595214843747 1.4977124999999996 Q 3.5887595214843744 1.4977124999999996 3.648009521484375 1.5318374999999997 Q 3.7072595214843744 1.5659624999999997 3.741009521484375 1.6270874999999996 Q 3.7747595214843748 1.6882124999999997 3.7747595214843748 1.7654624999999997 Q 3.7747595214843748 1.8427124999999998 3.741009521484375 1.9038374999999996 Q 3.7072595214843744 1.9649624999999997 3.648009521484375 1.9990874999999997 Q 3.5887595214843744 2.0332125 3.5152595214843747 2.0332125 Q 3.4425095214843746 2.0332125 3.3832595214843746 1.9990874999999997 M 3.6202595214843747 1.9604624999999998 Q 3.6667595214843747 1.9334624999999996 3.693759521484375 1.8828374999999997 Q 3.7207595214843745 1.8322124999999996 3.7207595214843745 1.7654624999999997 Q 3.7207595214843745 1.6987124999999996 3.693759521484375 1.6484624999999997 Q 3.6667595214843747 1.5982124999999996 3.6202595214843747 1.5712124999999997 Q 3.5737595214843747 1.5442124999999995 3.5152595214843747 1.5442124999999995 Q 3.4567595214843747 1.5442124999999995 3.4102595214843747 1.5712124999999997 Q 3.3637595214843747 1.5982124999999996 3.3367595214843746 1.6484624999999997 Q 3.3097595214843745 1.6987124999999996 3.3097595214843745 1.7654624999999997 Q 3.3097595214843745 1.8322124999999996 3.3367595214843746 1.8828374999999997 Q 3.3637595214843747 1.9334624999999996 3.4102595214843747 1.9604624999999998 Q 3.4567595214843747 1.9874624999999997 3.5152595214843747 1.9874624999999997 Q 3.5737595214843747 1.9874624999999997 3.6202595214843747 1.9604624999999998 M 4.169278198242187 1.7632124999999996 Q 4.1250281982421875 1.8044624999999996 4.036528198242188 1.8044624999999996 L 3.930778198242187 1.8044624999999996 L 3.930778198242187 2.0279624999999997 L 3.8782781982421874 2.0279624999999997 L 3.8782781982421874 1.5037124999999998 L 4.036528198242188 1.5037124999999998 Q 4.124278198242187 1.5037124999999998 4.168903198242187 1.5449624999999996 Q 4.213528198242187 1.5862124999999996 4.213528198242187 1.6544624999999997 Q 4.213528198242187 1.7219624999999996 4.169278198242187 1.7632124999999996 M 4.159528198242187 1.6544624999999997 Q 4.159528198242187 1.6019624999999997 4.130278198242188 1.5749624999999996 Q 4.1010281982421875 1.5479624999999997 4.036528198242188 1.5479624999999997 L 3.930778198242187 1.5479624999999997 L 3.930778198242187 1.7594624999999997 L 4.036528198242188 1.7594624999999997 Q 4.159528198242187 1.7594624999999997 4.159528198242187 1.6544624999999997 M 5.034037719726563 1.5104624999999996 L 5.034037719726563 2.0279624999999997 L 4.981537719726563 2.0279624999999997 L 4.981537719726563 1.6147124999999996 L 4.797037719726563 2.0279624999999997 L 4.758787719726563 2.0279624999999997 L 4.574287719726563 1.6162124999999996 L 4.574287719726563 2.0279624999999997 L 4.521787719726563 2.0279624999999997 L 4.521787719726563 1.5104624999999996 L 4.577287719726563 1.5104624999999996 L 4.777537719726563 1.9589624999999997 L 4.977787719726563 1.5104624999999996 L 5.034037719726563 1.5104624999999996 M 5.213272705078126 1.5037124999999998 L 5.213272705078126 2.0279624999999997 L 5.160772705078125 2.0279624999999997 L 5.160772705078125 1.5037124999999998 L 5.213272705078126 1.5037124999999998 M 5.644525634765626 1.5352124999999996 Q 5.706775634765626 1.5667124999999997 5.739775634765626 1.6259624999999995 Q 5.772775634765626 1.6852124999999996 5.772775634765626 1.7669624999999995 Q 5.772775634765626 1.8479624999999997 5.739775634765626 1.9068374999999997 Q 5.706775634765626 1.9657124999999998 5.644525634765626 1.9968374999999996 Q 5.582275634765626 2.0279624999999997 5.495275634765626 2.0279624999999997 L 5.340025634765626 2.0279624999999997 L 5.340025634765626 1.5037124999999998 L 5.495275634765626 1.5037124999999998 Q 5.582275634765626 1.5037124999999998 5.644525634765626 1.5352124999999996 M 5.662150634765626 1.9270874999999996 Q 5.719525634765626 1.8697124999999997 5.719525634765626 1.7669624999999995 Q 5.719525634765626 1.6634624999999996 5.662150634765626 1.6053374999999996 Q 5.604775634765626 1.5472124999999997 5.495275634765626 1.5472124999999997 L 5.392525634765626 1.5472124999999997 L 5.392525634765626 1.9844624999999996 L 5.495275634765626 1.9844624999999996 Q 5.604775634765626 1.9844624999999996 5.662150634765626 1.9270874999999996 M 6.5130208740234385 1.5037124999999998 L 6.364520874023439 2.0279624999999997 L 6.306020874023439 2.0279624999999997 L 6.174020874023439 1.5809624999999996 L 6.039020874023439 2.0279624999999997 L 5.982020874023439 2.0287124999999997 L 5.836520874023439 1.5037124999999998 L 5.892770874023439 1.5037124999999998 L 6.012770874023439 1.9634624999999997 L 6.147020874023439 1.5037124999999998 L 6.205520874023438 1.5037124999999998 L 6.336020874023439 1.9634624999999997 L 6.456770874023439 1.5037124999999998 L 6.5130208740234385 1.5037124999999998 M 6.904533691406252 1.9034624999999996 L 6.666033691406252 1.9034624999999996 L 6.620283691406252 2.0279624999999997 L 6.564783691406252 2.0279624999999997 L 6.756033691406252 1.5104624999999996 L 6.815283691406251 1.5104624999999996 L 7.0057836914062515 2.0279624999999997 L 6.950283691406252 2.0279624999999997 L 6.904533691406252 1.9034624999999996 M 6.8887836914062515 1.8599624999999997 L 6.785283691406252 1.5764624999999997 L 6.681783691406252 1.8599624999999997 L 6.8887836914062515 1.8599624999999997 M 7.443766845703127 1.5037124999999998 L 7.275766845703127 1.8239624999999997 L 7.275766845703127 2.0279624999999997 L 7.223266845703127 2.0279624999999997 L 7.223266845703127 1.8239624999999997 L 7.053766845703127 1.5037124999999998 L 7.113016845703127 1.5037124999999998 L 7.249516845703127 1.7759624999999997 L 7.385266845703127 1.5037124999999998 L 7.443766845703127 1.5037124999999998" fill="#faecd3" fill-rule="nonzero"></path></g><g clip-path="url(#SvgjsClipPath1002)"><g clip-path="url(#aafa21701-bd65-407b-905c-623b61e35dd22ec24b56-b169-46c8-9598-b6bb5b9a7296)"><path d=" M -0.42942217669922766 2.0656760102030587 C -0.3014816132155136 1.645322832159455 -0.6094834683351635 1.088128017513162 -0.9919699978184602 1.3108279219093 C -1.0821675387574088 1.3633318907096992 -1.165676912255572 1.560873900943178 -1.2930364334662419 1.4492519715109182 C -1.3075624902923473 1.4329086122563552 -1.3139292300927254 1.3790571198865553 -1.3171929569030163 1.3477055623452763 C -1.3230899178443374 1.2909488586102553 -1.3763974557457552 1.309653474761657 -1.3704263191951096 1.3671024841837096 C -1.3520925810903313 1.543479720556514 -1.2327934760929555 1.5664370716425375 -1.1433376912472548 1.5142668930840995 C -1.0497404348809198 1.4596860072226059 -0.965328591469305 1.3062166715296084 -0.8159389142891713 1.3083801268015818 C -0.5346155533233385 1.3124597853144453 -0.39795935574396113 1.746102760028741 -0.4700704106092144 2.046724142020574 C -0.47656077642513384 2.073785876822569 -0.45731220580535004 2.0755413662432565 -0.45731220580535004 2.0755413662432565 C -0.43758149372495514 2.083132003597494 -0.42942217669922766 2.0656760102030587 -0.42942217669922766 2.0656760102030587" fill="#67a97b" transform="matrix(1,0,0,1,0,0)" fill-rule="nonzero"></path></g><g clip-path="url(#aafa21701-bd65-407b-905c-623b61e35dd22ec24b56-b169-46c8-9598-b6bb5b9a7296)"><path d=" M -1.2092303575307795 1.36360386794389 C -1.1938265559943306 1.3733703231716545 -1.1676054780980163 1.3636285931469982 -1.1684832228083595 1.3430324989578142 L -1.1862235560385392 0.9308633631430459 C -1.095956021448509 0.8752967339636609 -1.0068399382031354 0.8178809326775022 -0.918931747836659 0.7586523234939916 C -0.8391558800078316 0.704973907545942 -1.0668750006349468 0.6754891028393368 -1.8825223633719281 -0.0421228295733759 C -1.8977036380804024 -0.05548680185339296 -1.9289439322076947 -0.05101154009079697 -1.9284123403408668 -0.025915458935908516 L -1.9007077502580567 1.2828637171938526 C -1.9000648949772418 1.3134364308372217 -1.856869965147104 1.31908613974746 -1.8491557017773255 1.2947318146858198 C -1.846126864396563 1.2944227496469665 -1.8429867636018133 1.293557367538177 -1.839760124596185 1.2919625919376938 C -1.4941635981504189 1.121704843334185 -1.5673996497570981 1.1365770530038062 -1.5413763734856496 1.1530687634770185 L -1.2092303575307795 1.36360386794389 M -0.9777530060312077 0.7348172276976173 C -1.1084827074200163 0.8217898023179985 -1.2417605747551246 0.9048699675783642 -1.3774111890732212 0.9839483742165074 L -1.8198316108909236 0.08179988840524546 C -1.550207491058922 0.3133828070085468 -1.2691631509810881 0.5313278137117905 -0.9777530060312093 0.7348172276976149 M -1.8490073505586757 1.2375795077010663 L -1.8732380496047747 0.09282732899153134 L -1.4232269904328079 1.0104537919485492 C -1.562771284360081 1.0905464872004846 -1.7047663476209653 1.1662914801515885 -1.8490073505587006 1.2375795077010794 M -1.2374665394804172 0.9621654702781086 L -1.2232619102947195 1.2921851187656683 L -1.5021127509497256 1.115449366947794 C -1.4129104406134774 1.0660779330054555 -1.3246783008697656 1.0149736072857247 -1.2374665394804207 0.9621654702781104" fill="#67a97b" transform="matrix(1,0,0,1,0,0)" fill-rule="nonzero"></path></g></g></g><defs><clipPath id="SvgjsClipPath1002"><path d=" M -1.9284190393670309 -0.04949125687863032 h 1.5284190393670307 v 2.1269450137572603 h -1.5284190393670307 Z"></path></clipPath><clipPath id="aafa21701-bd65-407b-905c-623b61e35dd22ec24b56-b169-46c8-9598-b6bb5b9a7296"><path d=" M -1.9284123403408668 2.077457569484147 L -0.3999991850003928 2.077457569484147 L -0.3999991850003928 -0.04949094009963875 L -1.9284123403408668 -0.04949094009963875 Z"></path></clipPath></defs></svg>