<?xml version="1.0" encoding="iso-8859-1"?>
<!-- Uploaded to: SVG Repo, www.svgrepo.com, Generator: SVG Repo Mixer Tools -->
<!DOCTYPE svg PUBLIC "-//W3C//DTD SVG 1.1//EN" "http://www.w3.org/Graphics/SVG/1.1/DTD/svg11.dtd">
<svg fill="#000000" version="1.1" id="Capa_1" xmlns="http://www.w3.org/2000/svg" xmlns:xlink="http://www.w3.org/1999/xlink" 
	 width="800px" height="800px" viewBox="0 0 555.396 555.396"
	 xml:space="preserve">
<g>
	<g>
		<path d="M554.048,185.274c-7.838-19.746-67.729-26.958-97.809-15.248c-19.825,7.716-79.059,31.442-79.059,31.442l-128.373,51.04
			l-145.854,58.006L6.555,268.949c-2.072-0.881-4.477-0.186-5.744,1.697c-1.267,1.861-1.032,4.372,0.572,5.953l67.313,67.032
			c-1.485,7.404,1.354,11.841,1.354,11.841c-5.604,2.557-8.298,9.043-6.017,14.824c2.32,5.807,8.774,8.679,14.619,6.638
			c0.663,0.706,4.23,4.193,8.041,7.879c6.182,5.998,15.302,7.825,23.322,4.679l194.513-76.312l-47.371,51.486
			c-3.188,3.478-3.099,8.815,0.203,12.187c1.546,1.564,3.108,3.146,4.667,4.723c3.128,3.146,8.07,3.479,11.599,0.82l160.66-121.336
			l51.174-20.12C534.999,222.317,561.899,205.026,554.048,185.274z"/>
		<path d="M203.877,238.87l48.356,3.54l112.981-44.925l-161.461,17.201c-4.405,0.47-7.778,4.106-7.907,8.533
			c-0.063,2.213-0.123,4.433-0.175,6.64C195.571,234.571,199.174,238.534,203.877,238.87z"/>
	</g>
</g>
</svg>